<svg width="192" height="40" viewBox="0 0 192 40" fill="none" xmlns="http://www.w3.org/2000/svg">
<path d="M42.3307 0.769531H12.0945C5.41489 0.769531 0 6.27987 0 13.0772V26.9234C0 33.7207 5.41489 39.2311 12.0945 39.2311H42.3307C49.0103 39.2311 54.4252 33.7207 54.4252 26.9234V13.0772C54.4252 6.27987 49.0103 0.769531 42.3307 0.769531Z" fill="#FDD503"/>
<path d="M27.2051 6.92285C22.6152 6.92285 18.8984 10.7136 18.8984 15.3844C18.8984 20.0552 22.6152 23.8459 27.2051 23.8459C31.8033 23.8459 35.5284 20.0552 35.5284 15.3844C35.5284 10.7136 31.8033 6.92285 27.2051 6.92285ZM30.7306 20.4613L27.2134 18.3036L23.6962 20.4613L24.6274 16.3913L21.526 13.6582L25.6169 13.3029L27.2134 9.46131L28.8099 13.2944L32.9008 13.6498L29.7994 16.3829L30.7306 20.4613Z" fill="#09090B"/>
<path d="M12.0939 31.8685L13.9625 33.0767L13.4667 30.7998L15.1176 29.2678L12.9436 29.0702L12.0939 26.9229L11.2443 29.0702L9.07031 29.2678L10.7212 30.7998L10.2253 33.0767L12.0939 31.8685Z" fill="#09090B"/>
<path d="M19.6525 31.8685L21.5211 33.0767L21.0253 30.7998L22.6762 29.2678L20.5022 29.0702L19.6525 26.9229L18.8029 29.0702L16.6289 29.2678L18.2798 30.7998L17.7839 33.0767L19.6525 31.8685Z" fill="#09090B"/>
<path d="M27.2131 31.8685L29.0817 33.0767L28.5858 30.7998L30.2367 29.2678L28.0627 29.0702L27.2131 26.9229L26.3634 29.0702L24.1895 29.2678L25.8403 30.7998L25.3445 33.0767L27.2131 31.8685Z" fill="#09090B"/>
<path d="M34.7717 31.8685L36.6403 33.0767L36.1444 30.7998L37.7953 29.2678L35.6213 29.0702L34.7717 26.9229L33.922 29.0702L31.748 29.2678L33.3989 30.7998L32.9031 33.0767L34.7717 31.8685Z" fill="#09090B"/>
<path d="M42.3303 31.8685L44.1989 33.0767L43.703 30.7998L45.3539 29.2678L43.1799 29.0702L42.3303 26.9229L41.4806 29.0702L39.3066 29.2678L40.9575 30.7998L40.4617 33.0767L42.3303 31.8685Z" fill="#09090B"/>
<path d="M63.9339 16.5149V32.3081H59.6641V12.8009H63.739L63.9339 16.5149ZM69.798 12.6747L69.7625 16.7132C69.5028 16.6651 69.2193 16.6291 68.9121 16.6051C68.6169 16.5809 68.3216 16.5689 68.0263 16.5689C67.294 16.5689 66.6503 16.6771 66.0953 16.8935C65.5402 17.0978 65.0736 17.3983 64.6957 17.7949C64.3295 18.1795 64.046 18.6483 63.8453 19.2012C63.6445 19.754 63.5263 20.3731 63.4909 21.0581L62.5165 21.1303C62.5165 19.9043 62.6346 18.7684 62.8708 17.7228C63.1071 16.6771 63.4614 15.7577 63.9339 14.9644C64.4181 14.1711 65.0204 13.5521 65.7409 13.1074C66.4733 12.6627 67.3176 12.4404 68.2744 12.4404C68.5342 12.4404 68.8117 12.4644 69.107 12.5125C69.4142 12.5605 69.6444 12.6146 69.798 12.6747ZM78.3927 32.6688C76.9754 32.6688 75.6938 32.4343 74.5481 31.9655C73.4143 31.4848 72.4458 30.8177 71.6426 29.9644C70.8513 29.1111 70.243 28.1074 69.8178 26.9535C69.3926 25.7997 69.18 24.5557 69.18 23.2217V22.5004C69.18 20.974 69.3985 19.5918 69.8355 18.3538C70.2726 17.1158 70.8808 16.0581 71.6603 15.1807C72.4399 14.2913 73.3611 13.6122 74.4242 13.1435C75.4871 12.6747 76.6387 12.4404 77.8788 12.4404C79.249 12.4404 80.4477 12.6747 81.4753 13.1435C82.5028 13.6122 83.3532 14.2733 84.0264 15.1266C84.7116 15.968 85.2194 16.9715 85.55 18.1375C85.8926 19.3034 86.0639 20.5894 86.0639 21.9957V23.8526H71.2528V20.7337H81.8473V20.3911C81.8237 19.6098 81.6701 18.8766 81.3867 18.1915C81.115 17.5064 80.6958 16.9535 80.1288 16.5329C79.5619 16.1123 78.806 15.9018 77.8611 15.9018C77.1525 15.9018 76.5206 16.0581 75.9655 16.3706C75.4221 16.6711 74.9674 17.1098 74.6014 17.6868C74.2352 18.2637 73.9517 18.9608 73.751 19.7781C73.562 20.5834 73.4675 21.4909 73.4675 22.5004V23.2217C73.4675 24.0749 73.5797 24.8683 73.804 25.6014C74.0403 26.3226 74.3828 26.9535 74.8316 27.4944C75.2805 28.0354 75.8237 28.462 76.4615 28.7744C77.0993 29.0749 77.8257 29.2252 78.6406 29.2252C79.6682 29.2252 80.5836 29.0149 81.3867 28.5941C82.1899 28.1735 82.8867 27.5786 83.4772 26.8094L85.7272 29.0269C85.3139 29.6398 84.7765 30.2288 84.115 30.7937C83.4536 31.3466 82.6446 31.7974 81.688 32.1458C80.7431 32.4944 79.6446 32.6688 78.3927 32.6688ZM93.2057 28.8646L97.9006 12.8009H102.33L95.6684 32.3081H92.9046L93.2057 28.8646ZM89.6093 12.8009L94.3928 28.9368L94.623 32.3081H91.8593L85.1624 12.8009H89.6093ZM107.363 12.8009V32.3081H103.076V12.8009H107.363ZM102.793 7.68074C102.793 7.01968 103.005 6.4728 103.43 6.04011C103.867 5.5954 104.47 5.37305 105.237 5.37305C105.993 5.37305 106.59 5.5954 107.027 6.04011C107.464 6.4728 107.682 7.01968 107.682 7.68074C107.682 8.32977 107.464 8.87063 107.027 9.30334C106.59 9.73602 105.993 9.95237 105.237 9.95237C104.47 9.95237 103.867 9.73602 103.43 9.30334C103.005 8.87063 102.793 8.32977 102.793 7.68074ZM118.314 32.6688C116.897 32.6688 115.616 32.4343 114.47 31.9655C113.336 31.4848 112.367 30.8177 111.564 29.9644C110.773 29.1111 110.165 28.1074 109.74 26.9535C109.314 25.7997 109.102 24.5557 109.102 23.2217V22.5004C109.102 20.974 109.32 19.5918 109.757 18.3538C110.194 17.1158 110.803 16.0581 111.582 15.1807C112.362 14.2913 113.283 13.6122 114.346 13.1435C115.409 12.6747 116.56 12.4404 117.801 12.4404C119.171 12.4404 120.369 12.6747 121.397 13.1435C122.425 13.6122 123.275 14.2733 123.948 15.1266C124.633 15.968 125.141 16.9715 125.472 18.1375C125.814 19.3034 125.986 20.5894 125.986 21.9957V23.8526H111.175V20.7337H121.769V20.3911C121.746 19.6098 121.592 18.8766 121.308 18.1915C121.037 17.5064 120.618 16.9535 120.051 16.5329C119.484 16.1123 118.728 15.9018 117.783 15.9018C117.074 15.9018 116.442 16.0581 115.887 16.3706C115.344 16.6711 114.889 17.1098 114.523 17.6868C114.157 18.2637 113.873 18.9608 113.673 19.7781C113.484 20.5834 113.389 21.4909 113.389 22.5004V23.2217C113.389 24.0749 113.501 24.8683 113.726 25.6014C113.962 26.3226 114.305 26.9535 114.753 27.4944C115.202 28.0354 115.745 28.462 116.383 28.7744C117.021 29.0749 117.747 29.2252 118.562 29.2252C119.59 29.2252 120.505 29.0149 121.308 28.5941C122.112 28.1735 122.808 27.5786 123.399 26.8094L125.649 29.0269C125.236 29.6398 124.698 30.2288 124.037 30.7937C123.375 31.3466 122.566 31.7974 121.61 32.1458C120.665 32.4944 119.566 32.6688 118.314 32.6688ZM132.348 27.9812L136.777 12.8009H139.506L138.761 17.3441L134.297 32.3081H131.852L132.348 27.9812ZM129.744 12.8009L133.198 28.0534L133.482 32.3081H130.754L125.563 12.8009H129.744ZM143.651 27.8731L147 12.8009H151.163L145.99 32.3081H143.261L143.651 27.8731ZM139.966 12.8009L144.342 27.8009L144.891 32.3081H142.446L137.929 17.3261L137.185 12.8009H139.966ZM169.201 28.7204V32.3081H155.506V28.7204H169.201ZM156.763 6.05814V32.3081H152.317V6.05814H156.763ZM167.411 17.0197V20.5534H155.506V17.0197H167.411ZM169.112 6.05814V9.66391H155.506V6.05814H169.112ZM178.15 32.3081H172.639L172.675 28.7204H178.15C179.744 28.7204 181.078 28.3658 182.153 27.6568C183.24 26.9475 184.055 25.932 184.599 24.6098C185.154 23.2877 185.43 21.7132 185.43 19.8863V18.462C185.43 17.0437 185.272 15.7877 184.953 14.694C184.646 13.6002 184.185 12.6807 183.571 11.9355C182.968 11.1904 182.224 10.6254 181.338 10.2408C180.464 9.85622 179.454 9.66391 178.308 9.66391H172.533V6.05814H178.308C180.021 6.05814 181.586 6.35262 183.004 6.94155C184.421 7.51848 185.644 8.35382 186.672 9.44756C187.71 10.5413 188.508 11.8514 189.063 13.3778C189.618 14.9043 189.895 16.6111 189.895 18.498V19.8863C189.895 21.7732 189.618 23.48 189.063 25.0064C188.508 26.5329 187.71 27.8431 186.672 28.9368C185.631 30.0184 184.392 30.8538 182.951 31.4428C181.521 32.0197 179.921 32.3081 178.15 32.3081ZM175.102 6.05814V32.3081H170.655V6.05814H175.102Z" fill="#FAFAFA"/>
</svg>
