<svg width="174" height="36" viewBox="0 0 174 36" fill="none" xmlns="http://www.w3.org/2000/svg">
<path d="M38.3622 0.692383H10.9606C4.90724 0.692383 0 5.65169 0 11.7693V24.2308C0 30.3485 4.90724 35.3078 10.9606 35.3078H38.3622C44.4156 35.3078 49.3228 30.3485 49.3228 24.2308V11.7693C49.3228 5.65169 44.4156 0.692383 38.3622 0.692383Z" fill="#FDD503"/>
<path d="M24.6539 6.23047C20.4943 6.23047 17.126 9.64216 17.126 13.8459C17.126 18.0495 20.4943 21.4612 24.6539 21.4612C28.821 21.4612 32.1968 18.0495 32.1968 13.8459C32.1968 9.64216 28.821 6.23047 24.6539 6.23047ZM27.8489 18.4151L24.6614 16.4732L21.4739 18.4151L22.3179 14.7521L19.5072 12.2923L23.2146 11.9725L24.6614 8.51508L26.1082 11.9649L29.8156 12.2847L27.0049 14.7445L27.8489 18.4151Z" fill="#09090B"/>
<path d="M10.9609 28.6816L12.6543 29.7689L12.2049 27.7197L13.701 26.3409L11.7308 26.1631L10.9609 24.2305L10.1909 26.1631L8.2207 26.3409L9.71683 27.7197L9.26744 29.7689L10.9609 28.6816Z" fill="#09090B"/>
<path d="M17.811 28.6816L19.5044 29.7689L19.055 27.7197L20.5511 26.3409L18.5809 26.1631L17.811 24.2305L17.041 26.1631L15.0708 26.3409L16.5669 27.7197L16.1175 29.7689L17.811 28.6816Z" fill="#09090B"/>
<path d="M24.6615 28.6816L26.355 29.7689L25.9056 27.7197L27.4017 26.3409L25.4315 26.1631L24.6615 24.2305L23.8916 26.1631L21.9214 26.3409L23.4175 27.7197L22.9681 29.7689L24.6615 28.6816Z" fill="#09090B"/>
<path d="M31.5116 28.6816L33.2051 29.7689L32.7557 27.7197L34.2518 26.3409L32.2816 26.1631L31.5116 24.2305L30.7417 26.1631L28.7715 26.3409L30.2676 27.7197L29.8182 29.7689L31.5116 28.6816Z" fill="#09090B"/>
<path d="M38.3622 28.6816L40.0556 29.7689L39.6063 27.7197L41.1024 26.3409L39.1322 26.1631L38.3622 24.2305L37.5922 26.1631L35.6221 26.3409L37.1182 27.7197L36.6688 29.7689L38.3622 28.6816Z" fill="#09090B"/>
<path d="M57.9393 14.8626V29.0765H54.0698V11.5201H57.7627L57.9393 14.8626ZM63.2537 11.4065L63.2215 15.0411C62.9862 14.9978 62.7293 14.9654 62.4509 14.9438C62.1833 14.922 61.9157 14.9112 61.6481 14.9112C60.9845 14.9112 60.4011 15.0086 59.8981 15.2034C59.395 15.3873 58.9722 15.6577 58.6297 16.0146C58.2979 16.3608 58.041 16.7827 57.859 17.2803C57.6771 17.7778 57.57 18.335 57.5379 18.9515L56.6549 19.0165C56.6549 17.9131 56.7619 16.8908 56.9759 15.9497C57.19 15.0086 57.5112 14.1811 57.9393 13.4672C58.3782 12.7532 58.924 12.1961 59.577 11.7959C60.2407 11.3957 61.0058 11.1955 61.873 11.1955C62.1083 11.1955 62.3599 11.2172 62.6275 11.2604C62.9059 11.3037 63.1145 11.3524 63.2537 11.4065ZM71.0426 29.4011C69.7582 29.4011 68.5968 29.1901 67.5585 28.7682C66.531 28.3355 65.6533 27.7351 64.9254 26.9672C64.2083 26.1992 63.6569 25.2959 63.2717 24.2574C62.8863 23.2189 62.6936 22.0993 62.6936 20.8987V20.2496C62.6936 18.8758 62.8916 17.6319 63.2877 16.5177C63.6838 15.4035 64.235 14.4515 64.9414 13.6619C65.6479 12.8614 66.4827 12.2502 67.4462 11.8283C68.4095 11.4065 69.4531 11.1955 70.5769 11.1955C71.8186 11.1955 72.905 11.4065 73.8362 11.8283C74.7675 12.2502 75.5381 12.8452 76.1482 13.6132C76.7691 14.3704 77.2294 15.2736 77.529 16.323C77.8395 17.3723 77.9947 18.5297 77.9947 19.7953V21.4666H64.5722V18.6595H74.1734V18.3512C74.152 17.6481 74.0128 16.9882 73.7559 16.3716C73.5097 15.755 73.1298 15.2574 72.616 14.8788C72.1022 14.5003 71.4172 14.3109 70.5609 14.3109C69.9188 14.3109 69.3461 14.4515 68.843 14.7328C68.3506 15.0032 67.9384 15.3981 67.6067 15.9173C67.2749 16.4365 67.018 17.0639 66.8361 17.7995C66.6648 18.5243 66.5792 19.341 66.5792 20.2496V20.8987C66.5792 21.6666 66.6808 22.3807 66.8842 23.0405C67.0983 23.6896 67.4086 24.2574 67.8154 24.7442C68.2222 25.2311 68.7145 25.615 69.2925 25.8962C69.8705 26.1666 70.5288 26.3019 71.2673 26.3019C72.1986 26.3019 73.0281 26.1126 73.7559 25.7339C74.4839 25.3554 75.1153 24.82 75.6505 24.1277L77.6896 26.1234C77.315 26.6751 76.8279 27.2051 76.2285 27.7135C75.6291 28.2112 74.896 28.6169 74.029 28.9305C73.1727 29.2442 72.1772 29.4011 71.0426 29.4011ZM84.4669 25.9774L88.7217 11.5201H92.7356L86.6988 29.0765H84.194L84.4669 25.9774ZM81.2077 11.5201L85.5427 26.0423L85.7514 29.0765H83.2467L77.1777 11.5201H81.2077ZM97.2973 11.5201V29.0765H93.4119V11.5201H97.2973ZM93.155 6.91188C93.155 6.31693 93.3476 5.82474 93.733 5.43532C94.129 5.03508 94.675 4.83496 95.3707 4.83496C96.0558 4.83496 96.5962 5.03508 96.9923 5.43532C97.3883 5.82474 97.5864 6.31693 97.5864 6.91188C97.5864 7.49601 97.3883 7.98279 96.9923 8.37222C96.5962 8.76163 96.0558 8.95635 95.3707 8.95635C94.675 8.95635 94.129 8.76163 93.733 8.37222C93.3476 7.98279 93.155 7.49601 93.155 6.91188ZM107.222 29.4011C105.937 29.4011 104.776 29.1901 103.738 28.7682C102.71 28.3355 101.832 27.7351 101.104 26.9672C100.387 26.1992 99.8361 25.2959 99.4508 24.2574C99.0654 23.2189 98.8728 22.0993 98.8728 20.8987V20.2496C98.8728 18.8758 99.0707 17.6319 99.4668 16.5177C99.8628 15.4035 100.414 14.4515 101.121 13.6619C101.827 12.8614 102.662 12.2502 103.625 11.8283C104.589 11.4065 105.632 11.1955 106.756 11.1955C107.998 11.1955 109.084 11.4065 110.015 11.8283C110.947 12.2502 111.717 12.8452 112.327 13.6132C112.948 14.3704 113.408 15.2736 113.708 16.323C114.019 17.3723 114.174 18.5297 114.174 19.7953V21.4666H100.751V18.6595H110.353V18.3512C110.331 17.6481 110.192 16.9882 109.935 16.3716C109.689 15.755 109.309 15.2574 108.795 14.8788C108.281 14.5003 107.596 14.3109 106.74 14.3109C106.098 14.3109 105.525 14.4515 105.022 14.7328C104.53 15.0032 104.118 15.3981 103.786 15.9173C103.454 16.4365 103.197 17.0639 103.015 17.7995C102.844 18.5243 102.758 19.341 102.758 20.2496V20.8987C102.758 21.6666 102.86 22.3807 103.063 23.0405C103.277 23.6896 103.588 24.2574 103.995 24.7442C104.401 25.2311 104.894 25.615 105.472 25.8962C106.05 26.1666 106.708 26.3019 107.446 26.3019C108.378 26.3019 109.207 26.1126 109.935 25.7339C110.663 25.3554 111.294 24.82 111.83 24.1277L113.869 26.1234C113.494 26.6751 113.007 27.2051 112.408 27.7135C111.808 28.2112 111.075 28.6169 110.208 28.9305C109.352 29.2442 108.356 29.4011 107.222 29.4011ZM119.94 25.1823L123.954 11.5201H126.426L125.752 15.6089L121.706 29.0765H119.49L119.94 25.1823ZM117.579 11.5201L120.71 25.2473L120.967 29.0765H118.495L113.79 11.5201H117.579ZM130.183 25.085L133.218 11.5201H136.991L132.302 29.0765H129.83L130.183 25.085ZM126.843 11.5201L130.809 25.02L131.307 29.0765H129.091L124.997 15.5927L124.323 11.5201H126.843ZM153.338 25.8476V29.0765H140.926V25.8476H153.338ZM142.066 5.45154V29.0765H138.037V5.45154H142.066ZM151.716 15.3169V18.4973H140.926V15.3169H151.716ZM153.257 5.45154V8.69674H140.926V5.45154H153.257ZM161.447 29.0765H156.453L156.486 25.8476H161.447C162.893 25.8476 164.101 25.5285 165.075 24.8903C166.06 24.252 166.799 23.338 167.292 22.1481C167.795 20.9581 168.046 19.5411 168.046 17.8969V16.615C168.046 15.3385 167.902 14.2081 167.613 13.2238C167.335 12.2394 166.917 11.4119 166.36 10.7412C165.814 10.0705 165.14 9.56212 164.337 9.21597C163.545 8.86981 162.63 8.69674 161.591 8.69674H156.357V5.45154H161.591C163.143 5.45154 164.561 5.71657 165.847 6.24662C167.13 6.76585 168.239 7.51765 169.17 8.50202C170.112 9.4864 170.835 10.6655 171.338 12.0393C171.841 13.4131 172.091 14.9492 172.091 16.6474V17.8969C172.091 19.5951 171.841 21.1312 171.338 22.505C170.835 23.8788 170.112 25.058 169.17 26.0423C168.228 27.0158 167.104 27.7677 165.799 28.2977C164.503 28.8169 163.053 29.0765 161.447 29.0765ZM158.685 5.45154V29.0765H154.656V5.45154H158.685Z" fill="#09090B"/>
</svg>
